MTV Unplugged è il primo album live della cantante americana Katy Perry, registrato dalla Capitol Records durante un live acustico il 22 luglio 2009, e pubblicato negli Stati Uniti il 17 novembre 2009. Il CD/DVD comprende 7 canzoni cantate unplugged durante un concerto di Katy Perry tenutosi nell'appuntamento dedicato alla cantante della serie MTV Unplugged. L'album comprende tutti i più grandi successi della cantante riarrangiati in chiave acustica come I Kissed a Girl, Waking Up In Vegas, e Thinking of You, una cover dei Fountains of Wayne, Hackensack ed alcuni inediti scritti dalla stessa autrice come Lost e Brick My Brick. Nel DVD sono compresi alcuni inserti speciali.


 
http://img231.imageshack.us/img231/4862/katyperrymtvunplugged19.jpg 
http://img412.imageshack.us/img412/4862/katyperrymtvunplugged19.jpg 
http://img3.imageshack.us/img3/4862/katyperrymtvunplugged19.jpg 
http://img838.imageshack.us/img838/4862/katyperrymtvunplugged19.jpg


Tracklist

01. I Kissed a Girl

02. Ur So Gay

03. Hackensack

04. Thinking Of You

05. Lost

06. Waking Up In Vegas

07. Brick By Brick










General
ID : 1
Complete name : Katy Perry MTV Unplugged 1920x1080i x264 dd51.ts
Format : MPEG-TS
File size : 3.37 GiB
Duration : 43mn 34s
Overall bit rate : 11.1 Mbps
Video
ID : 2915 (0xB63)
Menu ID : 1 (0x1)
Format : AVC
Format/Info : Advanced Video Codec
Format profile : Main@L4.0
Format settings, CABAC : Yes
Format settings, ReFrames : 4 frames
Duration : 43mn 34s
Bit rate : 9 919 Kbps
Width : 1 920 pixels
Height : 1 080 pixels
Display aspect ratio : 16:9
Frame rate : 25.000 fps
Resolution : 8 bits
Colorimetry : 4:2:0
Scan type : Interlaced
Scan order : Top Field First
Bits/(Pixel*Frame) : 0.191
Stream size : 3.02 GiB (90%)
Audio
ID : 2914 (0xB62)
Menu ID : 1 (0x1)
Format : AC-3
Format/Info : Audio Coding 3
Duration : 43mn 34s
Bit rate mode : Constant
Bit rate : 384 Kbps
Channel(s) : 2 channels
Channel positions : L R
Sampling rate : 48.0 KHz
Stream size : 120 MiB (3%)
Language : English